<?xml version="1.0" encoding="iso-8859-1"?>
<!-- Uploaded to: SVG Repo, www.svgrepo.com, Generator: SVG Repo Mixer Tools -->
<svg version="1.1" id="Layer_1" xmlns="http://www.w3.org/2000/svg" xmlns:xlink="http://www.w3.org/1999/xlink" 
	 viewBox="0 0 512 512" xml:space="preserve">
<rect x="69.002" y="9.302" style="fill:#82DCC7;" width="376.08" height="493.609"/>
<rect x="108.175" y="187.464" style="fill:#65B4BB;" width="297.735" height="276.279"/>
<rect x="108.175" y="48.477" style="fill:#F8F8F8;" width="297.735" height="92.261"/>
<path d="M444.042,417.594c5.08,0,9.195-4.117,9.195-9.195V9.195c0-5.078-4.116-9.195-9.195-9.195H67.958
	c-5.08,0-9.195,4.117-9.195,9.195v493.609c0,5.078,4.116,9.195,9.195,9.195h376.083c5.08,0,9.195-4.117,9.195-9.195V449.53
	c0-5.078-4.116-9.195-9.195-9.195c-5.08,0-9.195,4.117-9.195,9.195v44.079H77.153V18.391h357.693v390.008
	C434.847,413.477,438.963,417.594,444.042,417.594z"/>
<path d="M404.866,178.155H107.135c-5.08,0-9.195,4.117-9.195,9.195v276.278c0,5.078,4.116,9.195,9.195,9.195h297.732
	c5.08,0,9.195-4.117,9.195-9.195V187.351C414.062,182.272,409.946,178.155,404.866,178.155z M395.671,247.225h-56.043v-50.679
	h56.043V247.225z M265.197,247.225v-50.679h56.042v50.679H265.197z M321.238,265.616v50.679h-56.042v-50.679H321.238z
	 M246.806,247.225h-56.043v-50.679h56.043V247.225z M246.806,265.616v50.679h-56.043v-50.679H246.806z M172.372,316.295H116.33
	v-50.679h56.042V316.295z M172.372,334.686v50.678H116.33v-50.678L172.372,334.686L172.372,334.686z M190.763,334.686h56.043v50.678
	h-56.043V334.686z M246.806,403.755v50.679h-56.043v-50.679H246.806z M265.197,403.755h56.042v50.679h-56.042V403.755
	L265.197,403.755z M265.197,385.365v-50.678h56.042v50.678H265.197z M339.629,334.686h56.043v50.678h-56.043V334.686z
	 M339.629,316.295v-50.679h56.043v50.679H339.629z M172.372,196.546v50.679H116.33v-50.679L172.372,196.546L172.372,196.546z
	 M116.33,403.755h56.042v50.679H116.33V403.755z M339.629,454.433v-50.679h56.043v50.679H339.629z"/>
<path d="M414.062,48.37c0-5.078-4.116-9.195-9.195-9.195H107.135c-5.08,0-9.195,4.117-9.195,9.195v92.265
	c0,5.078,4.116,9.195,9.195,9.195h42.494c5.08,0,9.195-4.117,9.195-9.195s-4.116-9.195-9.195-9.195H116.33V57.566h279.342v73.875
	H190.76c-5.08,0-9.195,4.117-9.195,9.195c0,5.078,4.116,9.195,9.195,9.195h214.107c5.08,0,9.195-4.117,9.195-9.195V48.37H414.062z"
	/>
<path d="M374.876,115.959c5.08,0,9.195-4.117,9.195-9.195c0-5.078-4.116-9.195-9.195-9.195h-23.503c-5.08,0-9.195,4.117-9.195,9.195
	c0,5.078,4.116,9.195,9.195,9.195H374.876z"/>
</svg>